<svg width="24" height="24" viewBox="0 0 24 24" fill="none" xmlns="http://www.w3.org/2000/svg">
<path fill-rule="evenodd" clip-rule="evenodd" d="M4.37352 5.99838C4.6399 5.55647 6.10846 3.95228 7.15496 4.00071C7.46804 4.02752 7.7448 4.21604 7.96967 4.4357H7.97053C8.486 4.94074 9.96493 6.84674 10.048 7.24801C10.2529 8.23215 9.0793 8.79945 9.43822 9.79137C10.3533 12.0303 11.9299 13.6068 14.1699 14.5209C15.1611 14.8807 15.7285 13.708 16.7127 13.9121C17.114 13.996 19.021 15.4739 19.5252 15.9902V15.9902C19.7441 16.2142 19.9343 16.4918 19.9603 16.8048C19.9992 17.9075 18.2954 19.3958 17.9633 19.586C17.1797 20.1473 16.1574 20.1369 14.9111 19.5575C11.4335 18.1107 5.87581 12.6582 4.40206 9.04938C3.83817 7.81013 3.80011 6.78102 4.37352 5.99838Z" stroke="#170944" stroke-width="1.5" stroke-linecap="round" stroke-linejoin="round"/>
<path d="M14.1211 4.21008C17.2386 4.55619 19.7 7.01514 20.0504 10.1318" stroke="#170944" stroke-width="1.5" stroke-linecap="round" stroke-linejoin="round"/>
<path d="M14.1211 7.19366C15.6116 7.48419 16.7763 8.64882 17.0668 10.1393" stroke="#170944" stroke-width="1.5" stroke-linecap="round" stroke-linejoin="round"/>
</svg>
