<svg width="31" height="26" viewBox="0 0 31 26" fill="none" xmlns="http://www.w3.org/2000/svg">
<path fill-rule="evenodd" clip-rule="evenodd" d="M17.98 3C23.79 3 28 7.74612 28 13.015C28 14.6975 27.51 16.4291 26.65 18.0115C26.49 18.2729 26.47 18.6024 26.58 18.9139L27.25 21.1572C27.4 21.698 26.94 22.0976 26.43 21.9374L24.41 21.3375C23.86 21.1572 23.43 21.3866 22.92 21.698C21.46 22.5583 19.64 23 18 23C13.04 23 8 19.1642 8 12.985C8 7.65598 12.3 3 17.98 3Z" stroke="#170944" stroke-width="1.5" stroke-linecap="round" stroke-linejoin="round"/>
<path fill-rule="evenodd" clip-rule="evenodd" d="M9.515 9C5.1575 9 2 12.5596 2 16.5113C2 17.7732 2.3675 19.0719 3.0125 20.2586C3.1325 20.4547 3.1475 20.7018 3.065 20.9354L2.5625 22.6179C2.45 23.0235 2.795 23.3232 3.1775 23.2031L4.6925 22.7531C5.105 22.6179 5.4275 22.7899 5.81 23.0235C6.905 23.6688 8.27 24 9.5 24C13.22 24 17 21.1232 17 16.4887C17 12.492 13.775 9 9.515 9Z" fill="white" stroke="#170944" stroke-width="1.5" stroke-linecap="round" stroke-linejoin="round"/>
<circle cx="24.5" cy="6.5" r="5.5" fill="#1379FF" stroke="white" stroke-width="2"/>
</svg>
