<svg width="24" height="24" viewBox="0 0 24 24" fill="none" xmlns="http://www.w3.org/2000/svg">
<path d="M9.59435 13.3555C9.59435 14.2723 8.48555 14.7317 7.83755 14.0832L5.80955 12.0552C5.24891 11.4946 4.34027 11.4946 3.77963 12.0552C3.26411 12.5707 3.21707 13.3915 3.67067 13.9627L8.82347 20.4514C10.1262 21.7541 11.9262 22.56 13.9148 22.56C17.8911 22.56 21.1148 19.3363 21.1148 15.36L21.1148 7.68C21.1148 6.88464 20.4702 6.24 19.6748 6.24C18.8795 6.24 18.2348 6.88464 18.2348 7.68L18.2348 12L18.2348 4.8C18.2348 4.00464 17.5902 3.36 16.7948 3.36C15.9995 3.36 15.3548 4.00464 15.3548 4.8L15.3548 11.04L15.3548 10.08L15.3548 2.88C15.3548 2.08464 14.7102 1.44 13.9148 1.44C13.1195 1.44 12.4748 2.08464 12.4748 2.88L12.4748 10.08L12.4748 11.04L12.4748 3.84C12.4748 3.04464 11.8302 2.4 11.0348 2.4C10.2395 2.4 9.59483 3.04464 9.59483 3.84L9.59483 11.04L9.59435 13.3555Z" stroke="#170944" stroke-width="1.5" stroke-miterlimit="10" stroke-linecap="round" stroke-linejoin="round"/>
</svg>
