<svg width="24" height="24" viewBox="0 0 24 24" fill="none" xmlns="http://www.w3.org/2000/svg">
<g clip-path="url(#clip0_2292_83197)">
<g clip-path="url(#clip1_2292_83197)">
<path d="M6.5 2L-0.5 2C-2.70914 2 -4.5 3.79086 -4.5 6L-4.5 17C-4.5 19.2091 -2.70914 21 -0.500001 21L6.5 21C8.70914 21 10.5 19.2091 10.5 17L10.5 6C10.5 3.79086 8.70914 2 6.5 2Z" stroke="#170944" stroke-width="1.5" stroke-linecap="round" stroke-linejoin="round"/>
<path d="M6 9H-4" stroke="#170944" stroke-width="1.5" stroke-linecap="round"/>
<path d="M6 14H-4" stroke="#170944" stroke-width="1.5" stroke-linecap="round"/>
<path d="M25.5 2L18.5 2C16.2909 2 14.5 3.79086 14.5 6L14.5 17C14.5 19.2091 16.2909 21 18.5 21L25.5 21C27.7091 21 29.5 19.2091 29.5 17L29.5 6C29.5 3.79086 27.7091 2 25.5 2Z" stroke="#170944" stroke-width="1.5" stroke-linecap="round" stroke-linejoin="round"/>
<path d="M29 9H19" stroke="#170944" stroke-width="1.5" stroke-linecap="round"/>
<path d="M29 14H19" stroke="#170944" stroke-width="1.5" stroke-linecap="round"/>
</g>
</g>
<defs>
<clipPath id="clip0_2292_83197">
<rect width="24" height="24" fill="white"/>
</clipPath>
<clipPath id="clip1_2292_83197">
<rect width="24" height="24" fill="white" transform="translate(0 -1)"/>
</clipPath>
</defs>
</svg>
