<svg width="744" height="524" viewBox="0 0 744 524" fill="none" xmlns="http://www.w3.org/2000/svg">
<g clip-path="url(#clip0_140_1094)">
<path d="M692.118 413.098C692.118 403.352 686.986 394.799 679.313 390.03C675.062 387.386 672.833 382.357 673.87 377.484C674.181 376.136 674.337 374.685 674.337 373.233C674.337 363.539 667.545 355.452 658.473 353.43C656.089 352.912 654.43 350.683 654.689 348.195C654.793 347.106 654.845 346.069 654.741 345.188C654.015 339.589 650.853 336.531 646.291 333.99C643.958 332.694 642.818 329.999 643.44 327.407C643.751 326.111 643.958 324.815 644.01 323.415C644.269 313.047 638.722 308.796 634.834 306.878C632.968 305.945 631.568 304.234 630.998 302.161C629.495 296.614 624.259 292.622 618.194 293.037C612.232 293.451 607.359 298.117 606.685 304.079C606.685 304.13 606.685 304.182 606.685 304.234C606.478 306.256 604.715 307.759 602.693 307.656C602.02 307.604 601.346 307.656 600.672 307.707C593.103 308.329 587.038 314.447 586.519 322.015C586.416 323.208 586.468 324.4 586.675 325.54C587.09 328.184 585.949 330.776 583.668 332.176C579.417 334.872 576.1 338.915 574.389 343.736C573.715 345.603 572.16 347.002 570.242 347.521C561.74 349.905 555.519 357.681 555.519 366.961C555.519 369.449 555.986 371.834 556.815 374.063C558.111 377.484 556.452 381.217 553.082 382.616C544.062 386.401 537.686 395.265 537.686 405.685C537.686 409.884 538.723 413.876 540.589 417.349C543.388 422.637 542.352 429.117 537.893 433.109C531.673 438.759 527.733 446.898 527.733 455.97V467.22H694.813V455.97C694.813 451.408 691.962 447.106 688.541 443.218C684.86 439.018 684.601 432.849 687.711 428.132C690.407 423.829 692.118 418.697 692.118 413.098Z" fill="#37BC9B"/>
<path d="M720.371 421.484C720.371 413.034 715.498 405.569 708.188 401.422C704.145 399.141 702.019 394.734 703.004 390.483C703.263 389.291 703.419 388.047 703.419 386.803C703.419 378.353 696.939 371.303 688.282 369.54C686.001 369.074 684.445 367.104 684.653 364.978C684.756 364.045 684.808 363.112 684.705 362.386C684.031 357.513 680.972 354.817 676.669 352.64C674.44 351.5 673.352 349.167 673.974 346.886C674.285 345.797 674.44 344.605 674.492 343.413C674.751 334.392 669.464 330.712 665.783 329.053C663.969 328.223 662.673 326.72 662.154 324.958C660.703 320.136 655.726 316.663 649.92 317.026C644.269 317.389 639.604 321.432 638.982 326.616C638.982 326.668 638.982 326.72 638.982 326.72C638.774 328.483 637.115 329.779 635.197 329.727C634.575 329.675 633.901 329.727 633.279 329.779C626.073 330.297 620.319 335.637 619.801 342.22C619.697 343.257 619.749 344.294 619.956 345.279C620.371 347.56 619.231 349.841 617.105 351.085C613.062 353.418 609.899 356.943 608.24 361.142C607.618 362.749 606.115 363.993 604.301 364.46C596.213 366.533 590.252 373.324 590.252 381.36C590.252 383.537 590.667 385.611 591.496 387.529C592.74 390.483 591.133 393.749 587.971 394.994C579.365 398.259 573.352 406.036 573.352 415.056C573.352 418.736 574.337 422.158 576.1 425.216C578.743 429.778 577.758 435.429 573.559 438.954C567.598 443.879 563.865 450.981 563.865 458.861V468.658H722.963V458.861C722.963 454.921 720.215 451.136 717.001 447.767C713.476 444.086 713.217 438.747 716.172 434.651C718.815 430.815 720.371 426.305 720.371 421.484Z" fill="#CFF0BE"/>
<path d="M206.635 409.418C206.635 398.843 201.503 389.512 193.83 384.328C189.579 381.424 187.35 375.981 188.387 370.642C188.698 369.138 188.854 367.583 188.854 366.028C188.854 355.504 182.063 346.64 172.991 344.463C170.606 343.892 168.947 341.456 169.206 338.76C169.31 337.568 169.362 336.427 169.258 335.494C168.532 329.377 165.37 326.059 160.808 323.312C158.475 321.912 157.335 318.957 157.957 316.158C158.268 314.758 158.475 313.307 158.527 311.803C158.786 300.554 153.239 295.888 149.351 293.815C147.485 292.778 146.085 290.912 145.515 288.683C144.012 282.669 138.776 278.314 132.711 278.781C126.749 279.196 121.876 284.328 121.202 290.756C121.202 290.808 121.202 290.86 121.202 290.912C120.995 293.141 119.232 294.748 117.211 294.644C116.537 294.592 115.863 294.644 115.189 294.696C107.62 295.37 101.555 302.057 101.036 310.3C100.933 311.596 100.985 312.892 101.192 314.136C101.607 316.987 100.466 319.838 98.1852 321.342C93.9343 324.245 90.6165 328.651 88.9058 333.887C88.2319 335.909 86.6767 337.464 84.7586 338.034C76.2568 340.626 70.036 349.076 70.036 359.185C70.036 361.881 70.5026 364.473 71.332 366.909C72.628 370.642 70.9691 374.685 67.5995 376.241C58.5793 380.336 52.203 390.03 52.203 401.331C52.203 405.893 53.2398 410.248 55.106 414.032C57.9054 419.786 56.8686 426.836 52.4104 431.191C46.1895 437.308 42.2497 446.225 42.2497 456.074V468.309H209.33V456.074C209.33 451.098 206.479 446.432 203.058 442.181C199.377 437.567 199.118 430.88 202.228 425.8C204.976 421.082 206.635 415.483 206.635 409.418Z" fill="#9CE179"/>
<path d="M167.91 429.407C167.91 422.357 163.348 416.188 156.454 412.714C152.669 410.796 150.647 407.167 151.581 403.642C151.84 402.657 151.995 401.621 151.995 400.584C151.995 393.585 145.93 387.676 137.791 386.224C135.614 385.861 134.214 384.202 134.422 382.44C134.525 381.662 134.525 380.885 134.422 380.262C133.748 376.219 130.948 373.99 126.853 372.175C124.779 371.242 123.742 369.272 124.313 367.406C124.624 366.473 124.779 365.488 124.779 364.503C125.038 356.986 120.062 353.928 116.589 352.528C114.878 351.854 113.685 350.61 113.167 349.107C111.819 345.115 107.154 342.212 101.71 342.523C96.3709 342.834 92.0163 346.203 91.4461 350.506C91.4461 350.558 91.4461 350.558 91.4461 350.61C91.2905 352.061 89.6835 353.15 87.8691 353.098C87.247 353.098 86.6768 353.098 86.0547 353.098C79.3155 353.565 73.8723 357.971 73.4057 363.466C73.3539 364.347 73.3539 365.177 73.5612 366.006C73.9241 367.924 72.8873 369.791 70.8655 370.828C67.0812 372.797 64.1263 375.701 62.5711 379.174C61.949 380.522 60.6012 381.558 58.8905 381.921C51.27 383.632 45.7231 389.283 45.7231 395.97C45.7231 397.784 46.1378 399.495 46.8635 401.102C48.004 403.59 46.5525 406.286 43.5458 407.323C35.4587 410.071 29.8081 416.499 29.8081 424.016C29.8081 427.074 30.7413 429.925 32.4002 432.465C34.8885 436.302 33.9554 440.967 30.0155 443.87C24.4168 447.966 20.9435 453.875 20.9435 460.459V468.598H170.347V460.459C170.347 457.141 167.755 454.031 164.748 451.232C161.43 448.173 161.223 443.715 163.97 440.345C166.459 437.183 167.91 433.45 167.91 429.407Z" fill="#37BC9B"/>
<path d="M740.277 475.322H3.36961C1.50336 475.322 0 473.819 0 471.952C0 470.086 1.50336 468.583 3.36961 468.583H740.277C742.143 468.583 743.647 470.086 743.647 471.952C743.647 473.819 742.143 475.322 740.277 475.322Z" fill="#170944" fill-opacity="0.21"/>
<path d="M523.119 168.791C523.119 159.045 517.987 150.492 510.314 145.723C506.063 143.079 503.834 138.05 504.871 133.177C505.182 131.829 505.338 130.378 505.338 128.926C505.338 119.232 498.547 111.145 489.475 109.123C487.09 108.605 485.431 106.376 485.69 103.888C485.794 102.799 485.846 101.762 485.742 100.881C485.016 95.2821 481.854 92.2235 477.292 89.6834C474.959 88.3874 473.819 85.6917 474.441 83.0997C474.752 81.8037 474.959 80.5077 475.011 79.108C475.27 68.7399 469.723 64.489 465.835 62.571C463.969 61.6378 462.57 59.9271 461.999 57.8535C460.496 52.3066 455.26 48.3149 449.195 48.7297C443.233 49.1444 438.36 53.81 437.686 59.7716C437.686 59.8234 437.686 59.8753 437.686 59.9271C437.479 61.9489 435.716 63.4522 433.695 63.3486C433.021 63.2967 432.347 63.3486 431.673 63.4004C424.104 64.0225 418.039 70.1396 417.52 77.7083C417.417 78.9006 417.469 80.0929 417.676 81.2334C418.091 83.8773 416.95 86.4693 414.669 87.869C410.418 90.5646 407.101 94.6082 405.39 99.4293C404.716 101.296 403.161 102.695 401.243 103.214C392.741 105.598 386.52 113.374 386.52 122.654C386.52 125.142 386.987 127.527 387.816 129.756C389.112 133.177 387.453 136.91 384.084 138.309C375.063 142.094 368.687 150.958 368.687 161.378C368.687 165.577 369.724 169.569 371.59 173.042C374.389 178.33 373.353 184.81 368.894 188.802C362.674 194.452 358.734 202.591 358.734 211.663V222.913H525.814V211.663C525.814 207.101 522.963 202.799 519.542 198.911C515.861 194.711 515.602 188.542 518.712 183.825C521.46 179.522 523.119 174.338 523.119 168.791Z" fill="#CFF0BE"/>
<path d="M600.983 483.668H142.716C125.453 483.668 111.508 469.671 111.508 452.461V187.246C111.508 169.984 125.505 156.039 142.716 156.039H600.931C618.194 156.039 632.139 170.036 632.139 187.246V452.461C632.19 469.723 618.194 483.668 600.983 483.668Z" fill="#8787AB"/>
<path d="M596.887 489.319H139.917C121.669 489.319 106.894 474.545 106.894 456.297V191.135C106.894 172.887 121.669 158.113 139.917 158.113H596.887C615.135 158.113 629.909 172.887 629.909 191.135V456.297C629.909 474.545 615.135 489.319 596.887 489.319Z" fill="#0C252E"/>
<path d="M600.775 485.794H138.724C122.55 485.794 109.435 472.678 109.435 456.504V187.454C109.435 171.28 122.55 158.164 138.724 158.164H600.775C616.949 158.164 630.065 171.28 630.065 187.454V456.504C630.065 472.678 616.949 485.794 600.775 485.794Z" fill="url(#paint0_linear_140_1094)"/>
<path d="M596.265 165.474H143.182V478.484H596.265V165.474Z" fill="white"/>
<path d="M528.614 166.303H194.504V477.085H528.614V166.303Z" fill="white"/>
<path d="M621.822 114.826C624.259 114.826 626.281 112.856 626.281 110.367C626.281 107.931 624.311 105.909 621.822 105.909C621.719 105.909 621.563 105.909 621.46 105.909C620.526 103.317 618.09 101.451 615.187 101.451C612.284 101.451 609.795 103.317 608.914 105.961C608.759 105.961 608.551 105.909 608.344 105.909C607.618 105.909 606.996 106.065 606.374 106.376C605.389 104.561 603.523 103.369 601.346 103.369C598.183 103.369 595.643 105.909 595.643 109.071C595.643 112.234 598.183 114.774 601.346 114.774H621.822V114.826Z" fill="#AFEBF2"/>
<path d="M202.488 253.032C204.924 253.032 206.946 251.062 206.946 248.573C206.946 246.137 204.976 244.115 202.488 244.115C202.384 244.115 202.228 244.115 202.125 244.115C201.192 241.523 198.755 239.657 195.852 239.657C192.949 239.657 190.461 241.523 189.579 244.167C189.424 244.167 189.217 244.115 189.009 244.115C188.283 244.115 187.661 244.271 187.039 244.582C186.054 242.767 184.188 241.575 182.011 241.575C178.849 241.575 176.308 244.115 176.308 247.277C176.308 250.44 178.849 252.98 182.011 252.98H202.488V253.032Z" fill="#A6E0F4"/>
<path d="M650.327 58.0001C646.107 58.0001 642.647 54.5458 642.647 50.3334C642.647 46.1209 646.107 42.6667 650.327 42.6667C650.58 42.6667 650.749 42.6667 651.002 42.6667C652.605 38.2015 656.825 35.0001 661.889 35.0001C666.952 35.0001 671.172 38.2015 672.776 42.751C673.113 42.751 673.366 42.6667 673.704 42.6667C674.886 42.6667 676.067 42.9195 677.08 43.425C678.768 40.3078 682.059 38.2015 685.773 38.2015C691.258 38.2015 695.647 42.5825 695.647 48.0587C695.647 53.5349 691.258 57.9158 685.773 57.9158H650.327V58.0001Z" fill="#AFEBF2"/>
<path d="M168.766 52.9646C172.029 52.9646 174.647 50.3426 174.647 47.1536C174.647 43.9646 171.993 41.3426 168.766 41.3426C168.048 41.3426 167.367 41.4843 166.757 41.6969C165.717 37.8347 162.167 35.0001 157.936 35.0001C153.848 35.0001 150.369 37.6575 149.222 41.3426C148.289 40.7757 147.177 40.4568 145.994 40.4568C142.48 40.4568 139.647 43.256 139.647 46.7284C139.647 50.2008 142.48 53.0001 145.994 53.0001H168.766V52.9646Z" fill="#AFEBF2"/>
<path d="M90.7928 109.439C95.5102 109.439 99.3464 105.602 99.3464 100.885C99.3464 96.1675 95.5102 92.3313 90.7928 92.3313C89.756 92.3313 88.771 92.5386 87.8897 92.8497C86.3863 87.1991 81.2542 83.0001 75.137 83.0001C69.2273 83.0001 64.1988 86.8881 62.5399 92.2794C61.1402 91.45 59.5332 90.9834 57.8224 90.9834C52.7421 90.9834 48.6467 95.0788 48.6467 100.159C48.6467 105.239 52.7421 109.335 57.8224 109.335H90.7928V109.439Z" fill="#AFEBF2"/>
<path d="M204.221 402.101C211.893 406.871 217.025 415.424 217.025 425.17C217.025 430.717 215.314 435.849 212.619 440.1C209.508 444.818 209.767 450.987 213.448 455.186C216.87 459.074 219.721 463.376 219.721 467.938V479.188H143.101V305.109C149.166 304.694 154.402 308.686 155.906 314.232C156.476 316.306 157.876 318.017 159.742 318.95C163.63 320.868 169.177 325.119 168.917 335.487C168.866 336.887 168.658 338.183 168.347 339.479C167.725 342.071 168.866 344.766 171.198 346.062C175.76 348.602 178.923 351.661 179.648 357.26C179.752 358.141 179.7 359.178 179.597 360.266C179.337 362.755 180.996 364.984 183.381 365.502C192.453 367.524 199.244 375.611 199.244 385.305C199.244 386.757 199.088 388.208 198.777 389.556C197.741 394.429 199.97 399.458 204.221 402.101Z" fill="#CFF0BE"/>
<path d="M572.737 242.605C573.41 236.28 578.646 231.304 584.971 230.889C589.831 230.578 594.167 232.892 596.708 236.539V478.114H502.855C504.174 468.814 507.451 437.318 494.199 421.609C478.854 403.465 492.955 385.735 499.59 379.722C504.308 375.471 505.396 368.576 502.441 362.978C500.471 359.297 499.383 355.046 499.383 350.588C499.383 339.546 506.122 330.059 515.712 326.067C519.238 324.564 521 320.572 519.652 316.943C518.771 314.611 518.304 312.071 518.304 309.427C518.304 299.577 524.94 291.283 533.96 288.794C535.982 288.224 537.641 286.721 538.367 284.751C540.233 279.619 543.758 275.316 548.268 272.465C550.653 270.961 551.845 268.214 551.43 265.414C551.223 264.222 551.171 262.978 551.275 261.682C551.793 253.647 558.273 247.115 566.308 246.441L566.309 246.441C567.034 246.389 567.76 246.337 568.486 246.389C570.663 246.493 572.529 244.938 572.737 242.76V242.605Z" fill="#37BC9B"/>
<g clip-path="url(#clip1_140_1094)">
<g clip-path="url(#clip2_140_1094)">
<path d="M333.235 181.381C333.235 195.949 327.015 209.116 317.113 218.292C313.588 221.558 309.544 224.357 305.19 226.482C303.479 227.364 301.665 228.089 299.798 228.763C294.511 230.63 288.86 231.666 282.95 231.666C279.581 231.666 276.263 231.355 273.049 230.681C270.353 230.163 267.709 229.385 265.169 228.452C257.652 225.601 251.017 221.039 245.729 215.233C237.59 206.317 232.614 194.393 232.614 181.381C232.614 153.595 255.112 131.097 282.899 131.097C310.737 131.097 333.235 153.595 333.235 181.381Z" fill="#436ECE"/>
</g>
<path d="M267.347 459.556C267.347 459.556 266.362 460.333 264.91 461.214C265.895 460.074 266.724 459.141 267.347 458.415C267.347 459.193 267.347 459.556 267.347 459.556Z" fill="#F5CFBF"/>
<path d="M305.19 226.327V226.482C303.479 227.363 301.665 228.089 299.798 228.763C294.511 230.629 288.86 231.666 282.95 231.666C279.581 231.666 276.263 231.355 273.049 230.681C270.353 230.163 267.709 229.385 265.169 228.452L305.19 226.327Z" fill="#170944"/>
<path d="M276.729 152.247C276.729 152.247 272.427 150.744 268.746 157.276C265.065 163.756 261.955 182.729 261.488 192.786C261.022 202.843 262.525 212.174 262.525 212.174L294.77 202.584C294.77 202.584 299.643 153.336 290.934 152.299C282.225 151.21 276.729 152.247 276.729 152.247Z" fill="#A6E0F4"/>
<path d="M317.113 218.292C313.588 221.558 309.544 224.357 305.19 226.482C303.479 227.364 301.665 228.089 299.798 228.763L273.049 230.681C270.353 230.163 267.709 229.385 265.169 228.452C257.652 225.601 251.017 221.039 245.729 215.233V215.181C245.833 215.026 245.885 214.87 245.988 214.715C246.455 213.885 246.922 213.108 247.44 212.434C247.544 212.33 247.595 212.226 247.699 212.123C247.803 211.967 247.958 211.812 248.062 211.656C248.166 211.501 248.321 211.345 248.477 211.19C248.632 210.982 248.84 210.775 248.995 210.567C252.52 206.731 256.823 206.057 261.748 204.709C263.925 204.087 266.206 203.413 268.591 202.221C268.591 202.221 282.588 200.51 290.156 201.34C291.711 201.495 293.007 201.806 293.889 202.221C294.148 202.325 294.407 202.48 294.666 202.532C296.74 203.31 299.176 203.258 301.82 203.465C305.397 203.776 309.389 204.502 313.277 208.39C315.506 210.619 316.646 214.196 317.113 218.292Z" fill="#F5CFBF"/>
<path d="M317.113 218.292C313.588 221.558 309.544 224.357 305.19 226.482C303.479 227.364 301.665 228.089 299.798 228.763L273.049 230.681C270.353 230.163 267.709 229.385 265.169 228.452C257.652 225.601 251.017 221.039 245.729 215.233V215.181C245.833 215.026 245.885 214.87 245.988 214.715C246.455 213.885 246.922 213.108 247.44 212.434C247.544 212.33 247.595 212.226 247.699 212.123C247.803 211.967 247.958 211.812 248.062 211.656C248.166 211.501 248.321 211.345 248.477 211.19C248.632 210.982 248.84 210.775 248.995 210.567C252.52 206.731 256.823 206.057 261.748 204.709C263.925 204.087 266.206 203.413 268.591 202.221C268.591 202.221 282.588 200.51 290.156 201.34C291.711 201.495 293.007 201.806 293.889 202.221C294.148 202.325 294.407 202.48 294.666 202.532C296.74 203.31 299.176 203.258 301.82 203.465C305.397 203.776 309.389 204.502 313.277 208.39C315.506 210.619 316.646 214.196 317.113 218.292Z" fill="#170944"/>
<path d="M274.086 186.254C274.397 191.438 273.204 198.229 268.591 202.221C268.591 202.221 273.775 205.331 280.255 205.331C286.735 205.331 293.837 202.221 293.837 202.221C293.837 202.221 290.312 196 289.534 189.365C288.808 182.729 288.497 185.373 288.497 185.373L274.086 186.254Z" fill="#F5CFBF"/>
<path d="M274.086 186.254C274.397 191.438 273.204 198.229 268.591 202.221C268.591 202.221 273.775 205.331 280.255 205.331C286.735 205.331 293.837 202.221 293.837 202.221C293.837 202.221 290.312 196 289.534 189.365C288.808 182.729 288.497 185.373 288.497 185.373L274.086 186.254Z" fill="url(#paint1_linear_140_1094)"/>
<path d="M269.524 172.05C269.679 182.418 274.086 190.246 281.032 189.935C287.979 189.624 292.437 182.988 293.733 174.124C295.236 164.274 291.815 154.736 282.484 154.736C272.012 154.736 269.368 163.03 269.524 172.05Z" fill="#F5CFBF"/>
<path d="M296.273 151.625C300.732 156.083 305.449 169.821 304.982 184.751C304.516 199.681 299.073 214.3 293.733 214.611C288.394 214.922 290.312 193.771 291.348 186.825C292.385 179.878 294.148 169.666 292.385 162.563C290.623 155.461 286.786 154.891 286.786 154.891L296.273 151.625Z" fill="#A6E0F4"/>
<path opacity="0.72" d="M285.698 170.495C285.594 170.962 285.905 171.376 286.372 171.48C286.838 171.584 287.253 171.273 287.357 170.806C287.46 170.34 287.149 169.925 286.683 169.821C286.216 169.717 285.802 170.08 285.698 170.495Z" fill="black"/>
<path opacity="0.72" d="M272.323 170.184C272.219 170.651 272.53 171.065 272.997 171.169C273.464 171.273 273.878 170.962 273.982 170.495C274.086 170.028 273.775 169.614 273.308 169.51C272.79 169.406 272.375 169.717 272.323 170.184Z" fill="black"/>
<path d="M279.84 170.702L276.989 175.316C276.626 175.886 276.989 176.56 277.663 176.612L280.566 176.923L279.84 170.702Z" fill="#F29D9D"/>
<path d="M276.315 180.085C276.315 181.122 277.559 181.952 279.114 181.952C280.669 181.952 281.914 181.122 281.914 180.085C281.914 179.049 280.773 180.085 279.218 180.085C277.663 180.085 276.315 179.049 276.315 180.085Z" fill="white"/>
<path d="M284.194 175.368C283.935 176.819 284.92 178.271 286.372 178.53C287.823 178.789 289.275 177.804 289.534 176.353C289.793 174.901 288.808 173.45 287.357 173.191C285.905 172.88 284.505 173.865 284.194 175.368Z" fill="#F29D9D"/>
<path d="M271.183 172.413C272.634 172.672 273.619 174.072 273.36 175.575C273.101 177.027 271.701 178.012 270.198 177.753C270.146 177.753 270.146 177.753 270.094 177.753C269.835 176.301 269.627 174.59 269.576 172.62C270.094 172.413 270.612 172.361 271.183 172.413Z" fill="#F29D9D"/>
<path d="M267.813 457.845C267.657 458 267.502 458.208 267.346 458.415C267.346 456.964 267.243 454.164 267.191 450.484V450.432C267.398 450.276 267.554 450.173 267.606 450.173L267.813 457.845Z" fill="#3DBE9E"/>
<path d="M251.794 451.831C251.794 451.883 251.794 451.935 251.794 452.039C251.483 451.831 251.328 451.676 251.328 451.624C251.328 451.624 250.395 450.484 250.395 448.928C250.395 447.373 250.861 445.766 250.861 445.766C250.861 445.766 250.965 445.818 251.12 445.87C251.38 448.047 251.587 450.069 251.794 451.831Z" fill="#FAF8DC"/>
<path d="M267.606 450.173C267.606 450.173 267.554 450.173 267.606 450.173C267.554 450.224 267.398 450.328 267.191 450.535V450.484C267.139 448.721 267.139 446.751 267.087 444.626C267.087 444.626 267.969 445.922 268.072 447.373C268.124 448.825 267.606 450.173 267.606 450.173Z" fill="#FAF8DC"/>
<path d="M267.347 459.556C267.347 459.556 266.362 460.333 264.91 461.214C265.895 460.074 266.724 459.141 267.347 458.415C267.347 459.193 267.347 459.556 267.347 459.556Z" fill="#FAF8DC"/>
</g>
<path d="M333.235 412.018C333.235 426.015 327.533 438.612 318.357 447.736C309.285 456.756 296.74 462.303 282.95 462.303C279.788 462.303 276.73 461.992 273.723 461.473C269.265 460.644 265.066 459.244 261.074 457.326C255.32 454.579 250.239 450.743 245.937 446.129C237.694 437.16 232.614 425.185 232.614 412.018C232.614 384.232 255.112 361.733 282.899 361.733C310.737 361.733 333.235 384.232 333.235 412.018Z" fill="#3D6ACC"/>
<path d="M245.988 446.077C246.559 445.558 247.181 445.04 247.855 444.573C252.779 441.204 258.741 438.249 263.251 435.605C266.88 433.48 269.576 431.562 269.938 429.799L272.945 429.695L275.33 429.592L293.785 428.97C293.785 428.97 299.695 436.072 307.574 439.441C311.514 441.1 315.506 443.848 318.305 447.736C309.233 456.756 296.688 462.303 282.899 462.303C279.736 462.303 276.678 461.992 273.671 461.473C269.213 460.644 265.014 459.244 261.022 457.326C255.371 454.527 250.239 450.691 245.988 446.077Z" fill="#2EC76D"/>
<path d="M293.215 380.188C296.688 383.039 298.71 386.772 299.436 391.126C300.109 395.481 298.762 401.494 298.762 401.494L285.957 384.75L293.215 380.188Z" fill="#170944"/>
<path d="M301.094 400.354C301.094 402.479 299.798 404.242 298.191 404.242C296.584 404.242 295.288 402.531 295.288 400.354C295.288 398.228 296.584 396.466 298.191 396.466C299.798 396.466 301.094 398.228 301.094 400.354Z" fill="#F29D9D"/>
<path d="M292.8 411.24C292.385 421.297 293.785 428.97 293.785 428.97C293.785 428.97 291.037 431.147 283.728 430.94C276.419 430.732 272.893 430.162 272.893 430.162C272.893 430.162 274.293 416.736 274.086 411.811L292.8 411.24Z" fill="#F5CFBF"/>
<path opacity="0.72" d="M292.8 411.24C292.385 421.297 293.785 428.97 293.785 428.97C293.785 428.97 291.037 431.147 283.728 430.94C276.419 430.732 272.893 430.162 272.893 430.162C272.893 430.162 274.293 416.736 274.086 411.811L292.8 411.24Z" fill="#F5CFBF"/>
<path d="M298.14 399.836C298.14 410.774 290.623 419.328 283.469 419.172C276.263 418.965 268.176 410.204 268.176 399.265C268.176 388.327 273.101 379.359 283.469 379.566C294.563 379.722 298.14 388.897 298.14 399.836Z" fill="#F5CFBF"/>
<path d="M277.3 397.865C277.3 398.384 276.885 398.85 276.418 398.85C275.952 398.85 275.537 398.436 275.537 397.865C275.537 397.347 275.952 396.88 276.418 396.88C276.937 396.88 277.3 397.295 277.3 397.865Z" fill="black"/>
<path d="M293.37 397.244C293.37 397.762 292.955 398.228 292.489 398.228C292.022 398.228 291.608 397.814 291.608 397.244C291.608 396.725 292.022 396.259 292.489 396.259C293.007 396.31 293.37 396.725 293.37 397.244Z" fill="black"/>
<path d="M290.467 406.73C290.467 408.597 287.875 410.1 284.661 410.1C281.447 410.1 278.855 408.597 278.855 406.73C278.855 404.864 281.499 406.264 284.713 406.264C287.927 406.264 290.467 404.864 290.467 406.73Z" fill="white"/>
<path d="M291.193 402.065C290.934 403.516 291.919 404.968 293.37 405.227C294.822 405.486 296.273 404.501 296.533 403.05C296.792 401.598 295.807 400.147 294.355 399.887C292.852 399.628 291.452 400.613 291.193 402.065Z" fill="#F29D9D"/>
<path d="M272.168 403.257C271.909 404.709 272.893 406.16 274.345 406.419C275.796 406.678 277.248 405.694 277.507 404.242C277.766 402.79 276.781 401.339 275.33 401.08C273.827 400.821 272.427 401.805 272.168 403.257Z" fill="#F29D9D"/>
<path d="M294.459 381.381C294.148 381.951 293.681 382.573 293.059 383.247C291.919 384.439 290.26 385.787 287.979 387.498C287.046 388.223 286.009 388.949 284.92 389.83C278.699 394.444 273.204 396.829 273.204 396.829C273.204 396.829 273.256 398.695 273.464 401.494C273.567 402.894 273.671 404.553 273.826 406.316C273.93 407.197 273.982 408.13 274.086 409.063C274.189 409.893 274.241 410.826 274.345 411.914C274.397 412.847 274.5 413.832 274.604 414.921C274.915 419.068 275.174 424.2 275.33 429.695C275.33 429.955 275.33 430.266 275.33 430.577C275.434 435.087 275.382 439.752 275.226 444.211C275.019 448.721 274.604 455.097 273.723 461.525C269.265 460.696 265.065 459.296 261.074 457.378C261.903 452.298 262.629 447.425 262.94 443.589C263.147 440.997 263.251 438.353 263.251 435.657C263.458 423.267 262.37 409.789 262.629 398.591C262.94 385.009 270.923 378.892 277.507 376.508C284.091 374.123 293.526 375.523 294.666 378.892C294.977 379.67 294.925 380.499 294.459 381.381Z" fill="#170944"/>
<path d="M285.128 396.518L282.276 401.131C281.914 401.702 282.276 402.376 282.95 402.427L285.853 402.739L285.128 396.518Z" fill="#F29D9D"/>
<path d="M333.391 296.963C333.391 310.649 327.896 323.091 319.031 332.163C309.907 341.494 297.206 347.248 283.106 347.248C267.45 347.248 253.402 340.042 244.174 328.793C237.072 320.136 232.769 309.042 232.769 296.911C232.769 269.125 255.268 246.626 283.054 246.626C310.892 246.626 333.391 269.177 333.391 296.963Z" fill="#05C5DB"/>
<path d="M333.391 296.963C333.391 310.649 327.896 323.091 319.031 332.163C309.907 341.494 297.206 347.248 283.106 347.248C267.45 347.248 253.402 340.042 244.174 328.793C237.072 320.136 232.769 309.042 232.769 296.911C232.769 269.125 255.268 246.626 283.054 246.626C310.892 246.626 333.391 269.177 333.391 296.963Z" fill="#05C5DB"/>
<path d="M283.106 347.248C267.45 347.248 253.401 340.042 244.174 328.793C245.211 328.015 246.248 327.341 247.233 326.719C257.082 320.81 265.947 318.269 265.947 318.269L292.541 315.677C292.541 315.677 306.745 320.602 315.973 329.259C317.061 330.296 318.046 331.229 318.927 332.111C309.907 341.442 297.206 347.248 283.106 347.248Z" fill="#3D6ACC"/>
<path d="M271.027 299.659C270.457 305.465 265.999 318.269 265.999 318.269C265.999 318.269 271.235 322.416 279.425 322.105C287.616 321.794 292.645 315.677 292.645 315.677C292.645 315.677 291.141 308.005 292.23 301.888L271.027 299.659Z" fill="#F5CFBF"/>
<path opacity="0.72" d="M271.027 299.659C270.457 305.465 265.999 318.269 265.999 318.269C265.999 318.269 271.235 322.416 279.425 322.105C287.616 321.794 292.645 315.677 292.645 315.677C292.645 315.677 291.141 308.005 292.23 301.888L271.027 299.659Z" fill="url(#paint2_linear_140_1094)"/>
<path d="M272.958 291.899C274.457 290.401 274.457 287.972 272.958 286.474C271.46 284.976 269.031 284.976 267.533 286.474C266.035 287.972 266.035 290.401 267.533 291.899C269.031 293.397 271.46 293.397 272.958 291.899Z" fill="#F29D9D"/>
<path d="M300.176 297.022C301.674 295.524 301.674 293.095 300.176 291.597C298.678 290.099 296.249 290.099 294.751 291.597C293.253 293.095 293.253 295.524 294.751 297.022C296.249 298.521 298.678 298.521 300.176 297.022Z" fill="#F29D9D"/>
<path d="M270.457 287.528C272.219 274.568 276.678 269.384 289.482 270.991C302.287 272.546 299.954 287.165 297.466 293.075C295.237 298.466 292.541 310.908 279.84 308.834C268.85 307.02 269.265 296.082 270.457 287.528Z" fill="#F5CFBF"/>
<path d="M277.87 284.159C277.766 284.677 277.248 284.988 276.781 284.884C276.315 284.781 276.004 284.262 276.159 283.744C276.263 283.225 276.781 282.914 277.248 283.018C277.715 283.122 278.026 283.64 277.87 284.159Z" fill="black"/>
<path d="M293.629 287.321C293.526 287.839 293.007 288.15 292.541 288.046C292.074 287.943 291.763 287.424 291.919 286.906C292.074 286.388 292.541 286.077 293.007 286.18C293.474 286.284 293.785 286.802 293.629 287.321Z" fill="black"/>
<path d="M283.261 296.445C282.639 297.43 280.721 297.378 279.011 296.289C277.3 295.2 276.419 293.49 277.041 292.505C277.663 291.52 278.596 293.179 280.358 294.267C282.069 295.356 283.935 295.46 283.261 296.445Z" fill="white"/>
<path d="M290.364 291.52C289.741 292.868 290.364 294.475 291.763 295.097C293.111 295.719 294.718 295.097 295.34 293.697C295.962 292.349 295.34 290.742 293.94 290.12C292.541 289.498 290.986 290.12 290.364 291.52Z" fill="#F29D9D"/>
<path d="M271.39 287.528C270.768 288.876 271.39 290.483 272.79 291.105C274.138 291.727 275.745 291.105 276.367 289.705C276.989 288.358 276.367 286.751 274.967 286.128C273.619 285.506 272.012 286.128 271.39 287.528Z" fill="#F29D9D"/>
<path d="M285.387 283.847L280.099 289.031C279.477 289.654 279.736 290.69 280.514 291.001L284.298 292.297L285.387 283.847Z" fill="#F29D9D"/>
<path d="M276.004 273.791C276.004 273.791 275.796 268.451 281.603 266.688C286.268 265.289 289.327 266.377 293.111 264.408C297.155 262.334 300.317 258.083 301.768 258.29C303.272 258.498 302.961 266.274 299.902 269.903C299.902 269.903 301.976 268.607 301.872 270.317C301.768 271.976 301.094 277.627 298.347 277.627C295.599 277.627 295.859 275.138 293.837 274.568C291.763 273.998 290.312 275.553 286.32 274.879C282.38 274.205 282.795 272.806 280.203 272.702C277.715 272.65 276.004 273.791 276.004 273.791Z" fill="#CFF0BE"/>
<path d="M441.892 265.652H349.617V273.583H441.892V265.652Z" fill="#FF9C9C"/>
<path d="M477.766 290.639H349.617V294.164H477.766V290.639Z" fill="#9090B1"/>
<path d="M477.766 303.132H349.617V306.657H477.766V303.132Z" fill="#9090B1"/>
<path d="M477.766 315.625H349.617V319.15H477.766V315.625Z" fill="#9090B1"/>
<path d="M426.651 328.119H349.617V331.644H426.651V328.119Z" fill="#9090B1"/>
<g clip-path="url(#clip3_140_1094)">
<path d="M477.247 169.873H349.617V173.398H477.247V169.873Z" fill="#9090B1"/>
<path d="M477.247 182.314H349.617V185.839H477.247V182.314Z" fill="#9090B1"/>
<path d="M477.247 194.808H349.617V198.333H477.247V194.808Z" fill="#9090B1"/>
<path d="M393.785 207.301H349.617V210.827H393.785V207.301Z" fill="#9090B1"/>
</g>
<path d="M442.255 388.794H349.617V396.725H442.255V388.794Z" fill="#A6E0F4"/>
<path d="M478.284 413.781H349.617V417.306H478.284V413.781Z" fill="#9090B1"/>
<path d="M478.284 426.274H349.617V429.799H478.284V426.274Z" fill="#9090B1"/>
<path d="M478.284 438.767H349.617V442.293H478.284V438.767Z" fill="#9090B1"/>
<path d="M597.146 479.366H142.301V164.592H597.146V479.366ZM144.064 477.603H595.384V166.355H144.064V477.603Z" fill="black"/>
<path d="M494.451 65.267C493.363 61.2234 493.933 38.5175 493.933 38.5175L476.152 39.1914C476.152 39.1914 475.944 61.5863 475.478 65.1633C475.011 68.7402 468.894 70.1918 461.688 73.8206C460.703 74.339 459.615 75.4795 458.63 76.3089C459.77 78.9009 483.72 87.6619 485.431 89.891C487.297 92.3793 505.078 79.212 507.152 73.5095C498.806 68.9476 495.488 69.1031 494.451 65.267Z" fill="#F5CFBF"/>
<path d="M494.814 66.2519C494.71 65.9927 494.555 65.6298 494.451 65.267C493.363 61.2234 493.933 38.5175 493.933 38.5175L476.152 39.1914C476.152 39.1914 475.944 61.5863 475.478 65.1633C475.426 65.7335 475.167 66.2519 474.804 66.7703L494.814 66.2519Z" fill="url(#paint3_linear_140_1094)"/>
<path opacity="0.61" d="M493.052 38.1545L476.618 38.7766C476.618 38.7766 476.566 44.0125 476.411 50.3888C477.655 53.3437 480.195 58.113 484.602 58.0612C489.682 57.9575 491.237 53.5511 492.844 50.9591C492.792 44.2198 493.052 38.1545 493.052 38.1545Z" fill="#F29D9D" fill-opacity="0.42"/>
<path d="M480.662 38.6729C480.454 41.8351 477.655 44.2716 474.493 44.0124C471.331 43.8051 468.894 41.0057 469.153 37.8434C469.361 34.6812 472.16 32.2447 475.322 32.5039C478.484 32.7113 480.869 35.4588 480.662 38.6729Z" fill="#F5CFBF"/>
<path d="M477.914 38.4655C477.811 40.1244 476.359 41.4204 474.648 41.2649C472.989 41.1612 471.693 39.7097 471.849 37.9989C471.953 36.34 473.404 35.044 475.115 35.1996C476.774 35.3551 478.07 36.8066 477.914 38.4655Z" fill="#F29D9D"/>
<path d="M471.382 36.7548C468.738 34.422 468.116 26.1276 472.989 22.758C474.752 21.5138 477.137 21.0991 477.655 19.3884C478.588 16.0188 483.772 13.4786 487.556 15.3967C492.429 17.8332 494.814 15.9669 497.613 13.1157C500.62 10.0571 502.538 6.79122 510.885 8.24275C519.231 9.69427 521.667 8.70931 523.222 4.76946C524.778 0.777766 532.398 -2.43632 539.5 2.48849C546.551 7.4133 548.832 11.3013 553.601 9.53875C558.37 7.77618 563.191 5.02866 567.442 9.43507C571.641 13.8933 568.22 22.4988 562.673 22.3951C557.126 22.2914 559.925 28.8751 561.377 32.815C562.828 36.7548 558.733 42.8201 551.786 40.3836C544.84 37.9471 543.285 39.9689 541.004 43.5977C538.723 47.2265 532.813 47.071 529.91 44.8937C527.007 42.7683 523.534 41.0575 519.386 43.5977C515.239 46.1379 513.891 47.7449 509.018 45.6713C504.145 43.6496 503.212 44.3753 500.413 45.8268C497.665 47.2784 492.118 45.2048 492.118 45.2048L471.382 36.7548Z" fill="#3D6ACC"/>
<path opacity="0.71" d="M485.224 39.3469L484.861 35.096L501.087 36.1328C507.567 32.3485 509.122 32.4003 514.254 33.6963C519.386 35.0442 518.712 28.9789 524.104 27.1645C529.495 25.35 530.532 30.1712 535.509 30.0157C540.485 29.8601 538.982 24.9872 545.306 25.35C551.268 25.7129 551.994 30.1712 560.34 30.0675C560.703 31.0525 561.066 31.9856 561.377 32.815C562.88 36.7549 558.733 42.8202 551.786 40.3837C544.84 37.9472 543.285 39.969 541.004 43.5978C538.723 47.2266 532.813 47.0711 529.91 44.8938C527.007 42.7683 523.534 41.0576 519.386 43.5978C515.239 46.1379 513.891 47.745 509.018 45.6714C504.145 43.6496 503.368 44.1162 500.62 45.5677C497.873 47.0192 492.481 45.7232 492.481 45.7232L485.224 39.3469Z" fill="#3461C0"/>
<path d="M489.475 38.6729C489.682 41.8351 492.481 44.2716 495.644 44.0124C498.806 43.8051 501.242 41.0057 500.983 37.8434C500.776 34.6812 497.976 32.2447 494.814 32.5039C491.652 32.7113 489.267 35.4588 489.475 38.6729Z" fill="#F5CFBF"/>
<path d="M492.222 38.4655C492.326 40.1244 493.777 41.4204 495.488 41.2649C497.147 41.1612 498.443 39.7097 498.287 37.9989C498.184 36.34 496.732 35.044 495.021 35.1996C493.363 35.3551 492.118 36.8066 492.222 38.4655Z" fill="#F29D9D"/>
<path d="M474.182 40.6948C474.752 48.8337 477.551 54.6916 485.794 54.5361C490.978 54.4324 495.333 48.73 495.281 40.5911C495.229 32.0375 493.466 25.1946 483.824 25.1946C474.441 25.2464 473.612 32.6077 474.182 40.6948Z" fill="#F5CFBF"/>
<path d="M488.438 45.2567C488.541 46.6563 489.734 47.6932 491.133 47.5895C492.533 47.4858 493.57 46.2935 493.466 44.8938C493.363 43.4941 492.17 42.4573 490.771 42.561C489.371 42.6647 488.334 43.857 488.438 45.2567Z" fill="#F29D9D"/>
<path d="M475.841 45.2048C475.944 46.6045 477.137 47.6413 478.536 47.5376C479.936 47.4339 480.973 46.2416 480.869 44.8419C480.765 43.4422 479.573 42.4054 478.173 42.5091C476.774 42.6128 475.737 43.8051 475.841 45.2048Z" fill="#F29D9D"/>
<path d="M484.861 40.5911L482.891 44.4791C482.632 44.9456 482.995 45.464 483.513 45.464L485.846 45.5159L484.861 40.5911Z" fill="#F29D9D"/>
<path opacity="0.58" d="M500.828 39.7098C496.162 41.6279 493.881 39.9172 491.704 38.673C489.526 37.4288 489.786 31.4672 486.623 30.4822C483.409 29.4973 482.632 32.0375 479.21 31.1562C475.219 30.1194 474.389 32.5559 474.389 32.5559C474.389 32.5559 474.285 29.5491 480.195 27.4755C486.105 25.3501 492.844 25.3501 496.369 28.9789C497.51 30.1712 497.458 31.9856 498.754 33.1779C501.968 36.0291 500.828 39.7098 500.828 39.7098Z" fill="#F29D9D"/>
<path d="M493.155 37.8435C492.896 37.7917 492.585 37.7398 492.326 37.688C492.067 37.6362 491.807 37.5843 491.548 37.5325C491.03 37.4806 490.511 37.4288 489.993 37.4288C489.475 37.4288 488.956 37.4806 488.438 37.5843C487.919 37.688 487.401 37.8435 486.934 38.0509H486.883C486.779 38.1027 486.623 38.0509 486.623 37.9472C486.572 37.8435 486.623 37.7917 486.675 37.688C487.09 37.2214 487.66 36.9622 488.23 36.7549C488.801 36.5475 489.423 36.4438 489.993 36.4438C490.615 36.4438 491.185 36.5475 491.755 36.703C492.067 36.7549 492.326 36.9104 492.585 37.0141C492.844 37.1178 493.103 37.2733 493.363 37.4288C493.466 37.4806 493.518 37.6362 493.414 37.7399C493.363 37.7917 493.259 37.8435 493.155 37.8435Z" fill="#170944"/>
<path d="M488.49 40.5911C488.852 40.6429 489.164 40.7466 489.526 40.7984C489.889 40.8503 490.2 40.8503 490.511 40.8503C490.822 40.8503 491.185 40.7984 491.496 40.7466C491.807 40.6947 492.17 40.5911 492.429 40.4355C492.481 40.3837 492.585 40.4355 492.637 40.4874C492.689 40.5392 492.637 40.5911 492.637 40.6429C492.067 41.2131 491.289 41.4723 490.511 41.4723C490.148 41.4723 489.734 41.4205 489.371 41.3168C489.164 41.265 489.008 41.2131 488.852 41.1095C488.697 41.0058 488.541 40.9539 488.386 40.8503C488.334 40.7984 488.282 40.6947 488.334 40.6429C488.386 40.6429 488.438 40.5911 488.49 40.5911Z" fill="#1A1A1A"/>
<path d="M477.188 40.5911C477.551 40.6429 477.862 40.7466 478.225 40.7984C478.588 40.8503 478.899 40.8503 479.21 40.8503C479.521 40.8503 479.884 40.7984 480.195 40.7466C480.506 40.6947 480.869 40.5911 481.128 40.4355C481.18 40.3837 481.284 40.4355 481.336 40.4874C481.387 40.5392 481.336 40.5911 481.336 40.6429C480.765 41.2131 479.988 41.4723 479.21 41.4723C478.847 41.4723 478.433 41.4205 478.07 41.3168C477.862 41.265 477.707 41.2131 477.551 41.1095C477.396 41.0058 477.24 40.9539 477.085 40.8503C477.033 40.7984 476.981 40.6947 477.033 40.6429C477.085 40.6429 477.137 40.5911 477.188 40.5911Z" fill="#1A1A1A"/>
<path d="M482.269 37.688C482.01 37.6362 481.802 37.5844 481.543 37.5844C481.284 37.5325 481.076 37.4807 480.817 37.4807C480.351 37.4289 479.884 37.377 479.418 37.377C478.951 37.377 478.484 37.377 478.07 37.4807C477.603 37.5325 477.188 37.688 476.774 37.8436H476.722C476.618 37.8954 476.463 37.8436 476.463 37.7399C476.411 37.6362 476.463 37.5844 476.514 37.5325C476.929 37.1178 477.396 36.8586 477.914 36.7031C478.433 36.5476 478.951 36.4957 479.469 36.4957C479.988 36.4957 480.506 36.5994 481.025 36.7549C481.284 36.8068 481.491 36.9104 481.75 37.0141C481.958 37.1178 482.217 37.2733 482.424 37.377C482.528 37.4288 482.58 37.5844 482.476 37.688C482.476 37.6362 482.372 37.688 482.269 37.688Z" fill="#170944"/>
<path d="M482.061 47.8486C482.061 48.2115 483.409 48.5743 485.016 48.5743C486.623 48.5225 487.919 48.2115 487.919 47.7449C487.919 47.1747 486.623 47.8486 485.016 47.8486C483.409 47.9004 482.113 47.2783 482.061 47.8486Z" fill="#F29D9D"/>
<path d="M473.508 49.1447C473.352 49.1447 473.197 49.0411 473.197 48.8337V42.7166C473.197 42.561 473.3 42.4055 473.508 42.4055C473.663 42.4055 473.819 42.5092 473.819 42.7166V48.8337C473.767 48.9892 473.663 49.1447 473.508 49.1447Z" fill="#292969"/>
<path d="M496.006 49.4038C495.851 49.4038 495.695 49.3001 495.695 49.0928V42.9757C495.695 42.8201 495.799 42.6646 496.006 42.6646C496.162 42.6646 496.317 42.7683 496.317 42.9757V49.0928C496.266 49.2483 496.162 49.4038 496.006 49.4038Z" fill="#292969"/>
<path d="M500.931 36.1327C496.266 38.0508 494.399 38.5692 492.222 37.325C490.045 36.0808 490.304 30.1192 487.142 29.1343C483.928 28.1493 483.202 31.0523 479.677 30.6376C475.892 30.1711 474.234 31.8299 474.234 31.8299C474.234 31.8299 472.989 26.2312 478.899 24.1058C484.809 21.9803 493.363 23.8984 496.888 27.5791C500.413 31.2597 500.931 36.1327 500.931 36.1327Z" fill="#3D6ACC"/>
<path d="M465.317 163.556C454.483 163.556 451.735 152.151 454.016 140.383C456.763 126.645 470.501 120.062 483.254 120.062C496.006 120.062 509.381 127.941 512.958 141.472C515.758 151.995 512.025 163.556 501.19 163.556H465.317Z" fill="#292969"/>
<path d="M499.376 162.882H464.591C462.207 162.882 460.237 160.912 460.237 158.527V147.796C460.237 145.412 462.207 143.442 464.591 143.442H499.376C501.761 143.442 503.731 145.412 503.731 147.796V158.527C503.731 160.912 501.761 162.882 499.376 162.882Z" fill="#292969"/>
<path d="M471.745 68.8438C471.745 68.8438 460.911 72.7837 457.074 76.7754C453.86 80.145 452.513 82.3223 452.513 82.3223L463.606 118.299H502.953L516.742 82.2186C516.742 82.2186 513.736 76.7235 506.997 73.0947C500.257 69.4659 498.391 69.103 497.613 68.6365C497.613 68.6365 488.023 80.3523 485.535 80.456C483.15 80.6115 471.745 68.8438 471.745 68.8438Z" fill="#05C5DB"/>
<path d="M485.638 81.5447C488.645 81.5965 497.147 70.7101 498.495 68.9994C498.132 68.8438 497.925 68.7402 497.717 68.6365C497.717 68.6365 488.127 80.3523 485.638 80.456C483.15 80.5597 471.797 68.792 471.797 68.792C471.797 68.792 471.486 68.8957 470.968 69.103C472.212 70.4509 482.58 81.4928 485.638 81.5447Z" fill="#3D6ACC"/>
<path d="M452.772 82.3741C454.431 88.7505 460.651 89.4244 461.74 97.7188C456.297 107.724 450.802 122.706 450.802 122.706C450.802 122.706 471.901 123.743 480.403 126.335L480.143 136.34C480.143 136.34 453.29 136.34 445.721 136.34C438.153 136.34 434.576 131.208 437.012 119.595C440.071 104.976 448.314 88.6468 452.772 82.3741Z" fill="#F5CFBF"/>
<path d="M516.38 82.3741C515.861 88.8542 505.649 93.3643 507.411 97.7188C511.403 107.62 517.727 122.913 517.727 122.913C517.727 122.913 496.836 122.343 489.06 124.779V136.34C489.06 136.34 515.913 136.34 523.43 136.34C530.947 136.34 534.679 130.689 531.983 119.129C529.34 107.828 524 93.0014 516.38 82.3741Z" fill="#F5CFBF"/>
<path d="M461.74 145.101C470.19 143.857 473.56 151.995 476.67 164.852C479.78 177.708 487.868 212.13 491.911 223.95C495.644 234.836 491.289 231.415 489.423 237.324C487.712 242.819 484.861 246.915 480.714 247.122C477.759 247.278 480.662 238.257 483.979 231.415C483.513 225.038 476.826 212.597 466.406 190.046C456.141 167.859 455.934 164.333 455.312 156.868C454.69 149.403 458.63 145.567 461.74 145.101Z" fill="#F5CFBF"/>
<path d="M459.977 152.565C459.977 154.587 461.585 156.194 463.606 156.194C465.628 156.194 467.235 154.587 467.235 152.565C467.235 150.544 465.628 148.937 463.606 148.937C461.636 148.937 459.977 150.544 459.977 152.565Z" fill="#F29D9D"/>
<path d="M438.775 129.082C437.997 129.082 437.271 129.289 436.649 129.704C437.375 132.918 439.241 134.94 441.937 135.821C442.559 135.096 442.87 134.214 442.87 133.177C442.87 130.896 441.056 129.082 438.775 129.082Z" fill="#F29D9D"/>
<path d="M532.346 130.171C531.672 129.704 530.895 129.445 530.014 129.445C527.733 129.445 525.918 131.311 525.918 133.54C525.918 134.422 526.229 135.303 526.696 135.977C529.495 135.147 531.465 133.229 532.346 130.171Z" fill="#F29D9D"/>
<path d="M491.444 144.79C499.376 144.79 499.22 160.497 498.754 168.895C498.287 177.293 493.311 203.732 487.09 221.617C480.869 239.502 479.936 242.456 479.78 247.589C479.625 252.721 473.871 253.654 469.983 253.498C466.095 253.343 466.095 252.41 470.138 241.368C474.182 230.326 479.314 199.222 480.247 180.87C481.18 162.519 477.137 144.79 491.444 144.79Z" fill="#F8DBD0"/>
<path d="M486.416 152.721C486.416 154.743 488.023 156.35 490.045 156.35C492.067 156.35 493.674 154.743 493.674 152.721C493.674 150.699 492.067 149.092 490.045 149.092C488.023 149.092 486.416 150.699 486.416 152.721Z" fill="#F29D9D"/>
<path d="M453.86 151.218C457.178 145.671 494.088 145.567 505.234 150.492L504.508 134.784L457.126 135.666L453.86 151.218Z" fill="#292969"/>
<path d="M507.515 135.977H456.245C454.482 135.977 453.031 134.525 453.031 132.763V100.57C453.031 98.8075 454.482 97.356 456.245 97.356H507.515C509.277 97.356 510.729 98.8075 510.729 100.57V132.763C510.781 134.525 509.329 135.977 507.515 135.977Z" fill="#8EA9E1"/>
<path d="M510.781 136.702H453.031V101.296C453.031 99.5331 454.482 98.0815 456.245 98.0815H507.515C509.278 98.0815 510.729 99.5331 510.729 101.296V136.702H510.781Z" fill="#5A80D4"/>
<path d="M510.781 136.703H453.031V137.843C453.031 138.206 453.342 138.569 453.757 138.569H510.107C510.47 138.569 510.833 138.258 510.833 137.843V136.703H510.781Z" fill="#3D6ACC"/>
<path d="M485.244 120.87C487.228 118.886 487.228 115.67 485.244 113.686C483.26 111.702 480.043 111.702 478.059 113.686C476.075 115.67 476.075 118.886 478.059 120.87C480.043 122.854 483.26 122.854 485.244 120.87Z" fill="#3D6ACC"/>
<path d="M611.973 331.518C610.936 331.518 610.107 330.688 610.107 329.651V307.619C610.107 306.583 610.936 305.753 611.973 305.753C613.01 305.753 613.839 306.583 613.839 307.619V329.651C613.839 330.688 613.01 331.518 611.973 331.518Z" fill="#292969"/>
<path d="M130.119 318.661C130.119 320.216 128.875 321.512 127.268 321.512C125.712 321.512 124.416 320.268 124.416 318.661C124.416 317.106 125.66 315.81 127.268 315.81C128.875 315.81 130.119 317.106 130.119 318.661Z" fill="black"/>
<path d="M270.749 140.038C283.541 134.74 289.615 120.075 284.317 107.283C279.018 94.4914 264.353 88.4171 251.561 93.7156C238.77 99.0142 232.696 113.679 237.994 126.471C243.293 139.262 257.958 145.337 270.749 140.038Z" fill="#3D6ACC"/>
<path d="M254.644 116.691C254.644 118.218 253.413 119.449 251.886 119.449C250.359 119.449 249.128 118.218 249.128 116.691C249.128 115.164 250.359 113.933 251.886 113.933C253.413 113.982 254.644 115.164 254.644 116.691Z" fill="white"/>
<path d="M264.051 116.691C264.051 118.218 262.82 119.449 261.293 119.449C259.766 119.449 258.535 118.218 258.535 116.691C258.535 115.164 259.766 113.933 261.293 113.933C262.869 113.982 264.051 115.164 264.051 116.691Z" fill="white"/>
<path d="M273.507 116.691C273.507 118.218 272.276 119.449 270.749 119.449C269.222 119.449 267.991 118.218 267.991 116.691C267.991 115.164 269.222 113.933 270.749 113.933C272.276 113.982 273.507 115.164 273.507 116.691Z" fill="white"/>
<path d="M402.886 122.666C406.068 109.192 397.724 95.69 384.25 92.5084C370.775 89.3267 357.273 97.6705 354.092 111.145C350.91 124.619 359.254 138.121 372.728 141.303C386.202 144.484 399.704 136.14 402.886 122.666Z" fill="#2EC76D"/>
<path d="M372.7 116.691C372.7 118.218 371.468 119.449 369.942 119.449C368.415 119.449 367.183 118.218 367.183 116.691C367.183 115.164 368.415 113.933 369.942 113.933C371.468 113.982 372.7 115.164 372.7 116.691Z" fill="white"/>
<path d="M382.156 116.691C382.156 118.218 380.925 119.449 379.398 119.449C377.871 119.449 376.64 118.218 376.64 116.691C376.64 115.164 377.871 113.933 379.398 113.933C380.925 113.982 382.156 115.164 382.156 116.691Z" fill="white"/>
<path d="M391.563 116.691C391.563 118.218 390.332 119.449 388.805 119.449C387.278 119.449 386.047 118.218 386.047 116.691C386.047 115.164 387.278 113.933 388.805 113.933C390.332 113.982 391.563 115.164 391.563 116.691Z" fill="white"/>
<path d="M336.943 139.002H302.664C299.906 139.002 297.641 136.736 297.641 133.978V99.7485C297.641 96.9904 299.906 94.7249 302.664 94.7249H336.943C339.701 94.7249 341.967 96.9904 341.967 99.7485V134.027C341.918 136.786 339.701 139.002 336.943 139.002Z" fill="#05C5DB"/>
<path d="M330.491 111.027H308.18V113.49H330.491V111.027Z" fill="white"/>
<path d="M330.491 118.021H308.18V120.484H330.491V118.021Z" fill="white"/>
<path d="M477.396 449.869C476.618 454.171 472.989 472.056 472.938 475.737C472.886 478.899 464.384 477.396 458.578 477.448C451.165 477.499 447.691 478.588 448.054 475.996C448.314 474.285 456.297 474.596 461.999 466.561L465.058 450.957L477.396 449.869Z" fill="#F5CFBF"/>
<path d="M470.449 474.389C468.894 474.752 461.74 473.663 461.74 473.663C461.74 473.663 461.17 471.952 459.718 469.827C455.156 472.367 447.018 474.596 446.862 476.67C446.758 478.018 450.698 477.914 460.029 477.655C465.836 477.499 471.693 478.692 472.678 476.307C472.886 475.892 473.093 475.011 473.3 473.871C472.316 474.026 471.175 474.182 470.449 474.389Z" fill="#3D6ACC"/>
<path d="M472.989 475.374C471.953 477.707 466.095 476.566 460.34 476.722C451.683 476.981 447.691 477.085 447.225 475.996C447.018 476.203 446.914 476.463 446.914 476.67C446.81 478.018 450.75 477.914 460.081 477.655C465.887 477.499 471.745 478.692 472.73 476.307C472.834 476.048 472.938 475.633 473.093 475.115C473.041 475.218 473.041 475.322 472.989 475.374Z" fill="#FFCB8A"/>
<path opacity="0.7" d="M473.093 473.923C473.819 468.065 476.722 453.653 477.396 449.817L465.006 450.906L461.947 466.51C460.755 468.22 459.407 469.516 458.111 470.605C454.068 472.523 448.573 474.286 447.225 475.944C447.173 475.996 447.121 476.048 447.121 476.1C447.069 476.152 447.069 476.204 447.017 476.255V476.307C447.017 476.359 446.966 476.359 446.966 476.411C446.966 476.463 446.914 476.515 446.914 476.567C446.81 477.914 450.75 477.811 460.081 477.551C465.162 477.396 470.346 478.277 472.16 476.929C472.678 476.618 472.938 476.204 472.938 475.633V475.582C472.938 475.53 473.041 475.167 473.093 475.063C473.197 474.7 473.249 474.286 473.352 473.819C473.3 473.923 473.197 473.923 473.093 473.923Z" fill="#F5CFBF"/>
<path d="M560.755 385.12C554.43 393.208 540.796 418.506 540.796 418.506C540.796 418.506 521.875 384.55 517.624 376.774C513.373 368.998 512.077 369.413 512.077 369.413C512.077 369.413 507.411 372.679 510.314 378.848C511.351 381.025 511.973 383.669 513.477 388.749C515.032 393.83 523.896 432.71 539.708 434.939C555.519 437.168 575.529 405.234 579.365 399.48C587.401 387.453 571.226 371.746 560.755 385.12Z" fill="#F5CFBF"/>
<path opacity="0.7" d="M560.755 385.12C554.43 393.208 540.796 418.506 540.796 418.506C540.796 418.506 521.875 384.55 517.624 376.774C513.373 368.998 512.077 369.413 512.077 369.413C512.077 369.413 507.411 372.679 510.314 378.848C511.351 381.025 511.973 383.669 513.477 388.749C515.032 393.83 523.896 432.71 539.708 434.939C555.519 437.168 575.529 405.234 579.365 399.48C587.401 387.453 571.226 371.746 560.755 385.12Z" fill="url(#paint4_linear_140_1094)"/>
<path d="M572.626 371.59C566.613 377.604 555.882 375.634 553.704 374.234C549.816 371.746 549.454 370.501 548.158 366.562C555.571 360.652 556.296 361.429 556.348 357.801C556.4 353.809 550.698 334.058 550.698 334.058L567.131 330.377C567.131 330.377 572.419 349.973 573.715 353.135C574.492 355.053 578.951 358.112 580.869 360.341C579.21 365.214 576.203 367.961 572.626 371.59Z" fill="#F5CFBF"/>
<path d="M556.245 358.786C556.296 358.526 556.296 358.164 556.296 357.801C556.348 353.809 550.646 334.058 550.646 334.058L567.079 330.377C567.079 330.377 572.367 349.973 573.663 353.135C573.87 353.653 574.181 354.068 574.648 354.431L556.245 358.786Z" fill="url(#paint5_linear_140_1094)"/>
<path opacity="0.58" d="M556.141 346.811C555.467 346.966 554.793 347.07 554.119 347.122C552.408 340.331 550.646 334.006 550.646 334.006L562.414 331.362C563.658 338.879 561.688 345.515 556.141 346.811Z" fill="#BD422A"/>
<path d="M542.611 331.932C544.477 339.864 548.935 345.722 556.504 343.856C562.362 342.508 565.576 334.939 563.71 327.008C561.843 319.076 558.37 313.114 549.816 315.084C540.382 317.262 540.744 323.949 542.611 331.932Z" fill="#F5CFBF"/>
<path d="M566.613 313.218C569.308 316.743 573.404 320.268 567.39 331.414L561.532 330.844L562.725 318.195L566.613 313.218Z" fill="#170944"/>
<path d="M545.721 328.666C545.825 329.081 546.24 329.392 546.706 329.289C547.121 329.185 547.432 328.77 547.328 328.304C547.225 327.889 546.81 327.578 546.343 327.681C545.877 327.785 545.617 328.2 545.721 328.666Z" fill="black"/>
<path d="M559.977 333.488C563.088 332.762 565.006 329.651 564.28 326.541C563.554 323.431 560.444 321.512 557.333 322.238L559.977 333.488Z" fill="#F29D9D"/>
<path d="M559.355 330.844C561.014 330.481 561.999 328.822 561.636 327.163C561.273 325.504 559.614 324.519 557.955 324.882L559.355 330.844Z" fill="#BD422A"/>
<path d="M547.639 332.762C547.95 334.11 549.298 334.991 550.698 334.628C552.046 334.317 552.927 332.969 552.564 331.57C552.253 330.222 550.905 329.34 549.506 329.703C548.158 330.014 547.328 331.414 547.639 332.762Z" fill="#F29D9D"/>
<path d="M542.922 328.718L540.537 334.11C540.278 334.732 540.745 335.458 541.418 335.406L544.581 335.25L542.922 328.718Z" fill="#F29D9D"/>
<path d="M542.144 320.579C539.811 319.387 538.826 314.825 544.373 311.093C549.091 307.93 553.704 307.205 558.163 307.827C562.103 308.397 564.021 310.471 564.384 310.419C564.073 309.589 562.984 308.708 563.347 306.22C564.021 301.554 571.019 300.31 573.87 303.109C576.722 305.857 577.862 310.782 573.818 313.84C572.004 315.188 567.857 313.892 566.561 313.166C566.561 314.203 568.375 315.758 568.323 319.646C568.22 326.178 558.992 325.297 556.608 324.83C553.445 324.208 551.372 321.098 549.298 317.002C549.35 317.054 546.551 316.536 542.144 320.579Z" fill="#292969"/>
<path d="M547.536 325.712C548.002 325.608 548.417 325.452 548.832 325.297C549.43 325.084 548.977 324.828 548.676 324.727C547.743 324.623 546.81 324.727 545.928 324.986C545.462 325.141 545.047 325.297 544.632 325.556C544.425 325.712 544.218 325.815 544.01 325.971L543.751 326.23L543.647 326.334L543.596 326.386L543.492 326.489C543.388 326.593 543.337 326.748 543.44 326.852C543.492 326.904 543.596 326.956 543.647 326.956H543.751H543.803L544.425 326.697C544.632 326.645 544.84 326.541 545.047 326.489C545.462 326.334 545.877 326.178 546.291 326.075L547.536 325.712Z" fill="#292969"/>
<path d="M543.907 335.924C543.907 335.924 543.233 346.448 546.965 346.862C552.668 347.536 558.163 343.493 560.133 342.093C561.895 340.849 559.666 332.14 559.666 332.14L557.647 323L556.147 323.5C556.147 323.5 557.644 333.902 553.653 335.198C552.253 335.717 548.054 334.265 543.907 335.924Z" fill="#292969"/>
<path d="M544.529 337.687C544.321 337.739 544.062 337.79 543.855 337.79C543.855 338.257 543.855 338.775 543.907 339.346C544.218 339.346 544.581 339.346 544.943 339.242C546.239 338.931 547.121 338.101 546.965 337.324C546.758 336.598 545.825 337.376 544.529 337.687Z" fill="white"/>
<path d="M533.694 433.435C526.437 422.808 508.396 392.585 487.868 394.659C466.147 396.888 460.133 466.769 460.133 466.769L476.515 467.494L491.496 418.557L525.659 465.991L549.143 456.971L533.694 433.435Z" fill="#3D6ACC"/>
<path d="M533.694 433.435C526.437 422.808 508.396 392.585 487.868 394.659C466.147 396.888 460.133 466.769 460.133 466.769L476.515 467.494L491.496 418.557L525.659 465.991L549.143 456.971L533.694 433.435Z" fill="url(#paint6_linear_140_1094)"/>
<path opacity="0.16" d="M490.2 405.234C478.536 405.597 471.227 452.824 470.968 454.845L471.642 454.949C471.642 454.845 473.508 442.559 476.774 430.481C481.025 414.566 485.69 406.116 490.2 405.96C490.252 405.96 490.304 405.96 490.356 405.96C501.553 405.96 523.948 444.477 524.207 444.84L524.83 444.477C523.896 442.87 501.761 404.872 490.2 405.234Z" fill="black"/>
<path d="M399.014 474.234C394.659 474.96 375.426 478.018 372.471 477.603C369.931 477.292 369.465 471.331 367.702 465.784C364.903 456.867 363.71 453.135 365.058 452.876C367.65 452.305 374.182 464.384 378.07 465.369L393.778 462.984L399.014 474.234Z" fill="#F5CFBF"/>
<path d="M578.069 436.649C572.834 448.313 565.991 476.048 540.9 477.448C515.809 478.847 487.868 471.797 467.754 472.212C447.64 472.626 392.585 477.862 392.585 477.862C392.585 477.862 391.186 473.041 390.771 467.598C390.356 462.155 390.771 459.563 390.771 459.563C390.771 459.563 441.419 450.076 468.531 448.469C495.644 446.862 538.671 450.698 538.671 450.698L523.378 446.292L535.82 422.808L578.069 436.649Z" fill="#3D6ACC"/>
<path opacity="0.18" d="M551.994 454.172C551.216 453.809 549.298 452.616 547.276 449.869C544.736 446.396 545.98 439.19 546.032 439.086L545.358 438.982C545.306 439.293 544.062 446.603 546.758 450.284C548.78 453.031 550.698 454.275 551.631 454.742C548.78 458.319 545.151 461.688 540.693 463.503C532.191 466.976 517.572 465.214 500.672 463.192C492.481 462.207 483.98 461.17 475.322 460.652C454.845 459.407 430.636 462.414 409.278 465.058C402.798 465.887 396.629 466.613 390.926 467.235C390.926 467.339 390.926 467.495 390.926 467.598L390.978 467.961C396.681 467.339 402.85 466.613 409.382 465.784C430.74 463.14 454.949 460.081 475.322 461.377C483.928 461.896 492.429 462.933 500.62 463.918C517.624 465.939 532.294 467.702 541.004 464.177C553.756 458.993 559.977 441.523 560.081 441.315L559.407 441.056C559.2 441.212 556.815 447.899 551.994 454.172Z" fill="black"/>
<path d="M548.106 366.562C548.106 366.562 552.357 374.493 561.688 374.027C571.019 373.56 580.817 360.341 580.817 360.341C580.817 360.341 605.286 371.435 597.665 401.709C592.792 420.942 583.616 448.469 583.616 448.469C583.616 448.469 555.571 450.335 530.325 433.124L532.657 385.276C532.709 385.328 535.509 375.789 548.106 366.562Z" fill="#170944"/>
<path d="M510.263 363.607L517.779 363.762C518.712 363.762 519.542 364.332 519.905 365.162L526.281 379.729C526.54 380.351 526.074 381.025 525.4 380.973L517.365 380.558C516.639 380.507 515.965 380.04 515.654 379.366L509.589 364.643C509.329 364.177 509.692 363.607 510.263 363.607Z" fill="#170944"/>
<path d="M574.181 386.52C567.857 394.607 550.594 421.616 550.594 421.616C550.594 421.616 535.249 385.95 531.05 378.174C526.799 370.398 522.03 371.279 522.03 371.279L523.637 373.042C523.637 373.042 520.682 372.368 520.63 373.145C520.579 373.923 523.274 374.39 524 375.323C524 375.323 521.304 374.027 520.734 374.649C520.164 375.271 523.326 376.359 523.896 377.137C523.896 377.137 521.408 376.1 521.149 376.722C520.838 377.396 522.549 378.07 523.741 380.196C524.933 382.321 525.4 385.017 526.903 390.097C528.458 395.177 532.45 435.094 548.209 437.375C564.021 439.604 588.904 406.634 592.74 400.828C600.827 388.853 584.705 373.145 574.181 386.52Z" fill="#F5CFBF"/>
<path d="M548.261 437.427C549.505 437.583 550.853 437.583 552.201 437.324C552.201 437.168 552.253 436.961 552.253 436.753C552.253 434.68 550.542 432.969 548.469 432.969C546.551 432.969 544.995 434.369 544.736 436.183C545.825 436.805 547.017 437.272 548.261 437.427Z" fill="#F29D9D"/>
<path d="M373.715 474.856C372.937 473.456 372.056 466.302 372.056 466.302C372.056 466.302 373.56 465.265 375.167 463.295C371.486 459.615 367.079 452.357 365.058 452.824C363.71 453.135 364.902 456.867 367.702 465.732C369.464 471.279 369.931 477.24 372.471 477.551C372.937 477.603 373.819 477.603 374.959 477.5C374.544 476.566 374.078 475.478 373.715 474.856Z" fill="#3D6ACC"/>
<path d="M373.456 477.603C370.916 477.292 370.45 471.33 368.687 465.784C366.095 457.541 364.903 453.705 365.784 452.979C365.525 452.875 365.266 452.823 365.006 452.875C363.659 453.186 364.851 456.919 367.65 465.784C369.413 471.33 369.879 477.292 372.42 477.603C372.679 477.655 373.145 477.655 373.664 477.603C373.612 477.603 373.56 477.603 373.456 477.603Z" fill="#FFCB8A"/>
<path d="M274.39 524H50.0776C49.1963 524 48.4705 523.067 48.4705 521.926C48.4705 520.786 49.1963 519.853 50.0776 519.853H274.39C275.271 519.853 275.997 520.786 275.997 521.926C275.945 523.067 275.219 524 274.39 524Z" fill="#170944" fill-opacity="0.21"/>
<path d="M129.341 426.644C133.592 437.064 135.251 451.89 135.769 462.466L112.804 464.747L129.341 426.644Z" fill="#A6E0F4"/>
<path d="M194.349 460.029C194.349 460.029 192.534 455.519 183.67 456.141C175.997 456.66 146.085 461.533 138.361 462.777C135.355 467.442 132.244 472.108 128.978 476.618C142.664 481.75 171.28 467.339 175.79 466.043C180.87 464.591 183.41 463.554 185.847 463.399C188.283 463.243 189.787 464.28 190.15 463.71C190.512 463.088 188.283 461.585 188.283 461.585C189.268 461.688 191.808 463.71 192.068 462.932C192.327 462.155 189.787 460.548 189.787 460.548C190.979 460.651 192.845 462.673 193.415 462.207C194.038 461.74 191.912 459.615 191.912 459.615L194.349 460.029Z" fill="#F5CFBF"/>
<path opacity="0.7" d="M194.349 460.029C194.349 460.029 192.534 455.519 183.67 456.141C175.997 456.66 146.085 461.533 138.361 462.777C135.355 467.442 132.244 472.108 128.978 476.618C142.664 481.75 171.28 467.339 175.79 466.043C180.87 464.591 183.41 463.554 185.847 463.399C188.283 463.243 189.787 464.28 190.15 463.71C190.512 463.088 188.283 461.585 188.283 461.585C189.268 461.688 191.808 463.71 192.068 462.932C192.327 462.155 189.787 460.548 189.787 460.548C190.979 460.651 192.845 462.673 193.415 462.207C194.038 461.74 191.912 459.615 191.912 459.615L194.349 460.029Z" fill="#E6B191"/>
<path d="M105.961 425.037C108.242 433.228 118.558 436.805 121.099 436.701C125.712 436.442 123.639 437.945 126.749 435.146C126.127 426.333 125.194 424.26 126.957 421.097C128.875 417.624 143.597 403.264 143.597 403.264L131.104 391.963C131.104 391.963 116.848 406.375 114.152 408.5C112.545 409.796 107.154 410.263 104.354 411.248C103.369 416.224 104.613 420.164 105.961 425.037Z" fill="#F5CFBF"/>
<path d="M126.542 421.979C126.645 421.719 126.801 421.408 126.956 421.097C128.875 417.624 143.597 403.264 143.597 403.264L131.104 391.963C131.104 391.963 116.848 406.375 114.152 408.5C113.737 408.863 113.219 409.07 112.649 409.174L126.542 421.979Z" fill="url(#paint7_linear_140_1094)"/>
<path opacity="0.58" d="M131.674 412.544C132.192 413.01 132.763 413.425 133.281 413.736C137.947 408.552 142.457 403.731 142.457 403.731L133.281 395.903C128.667 401.968 127.371 408.811 131.674 412.544Z" fill="#DCA179"/>
<path d="M134.888 378.122C131.156 380.558 125.972 382.476 127.993 394.97L133.903 396.421L136.91 384.083L134.888 378.122Z" fill="#D6B88D"/>
<path d="M151.425 403.627C148.833 407.774 145.101 412.699 141.472 413.632C139.087 414.254 137.117 412.958 133.54 409.278C130.067 405.701 128.719 398.961 133.074 392.067C137.428 385.172 142.664 380.662 150.129 385.379C158.32 390.512 155.78 396.732 151.425 403.627Z" fill="#F5CFBF"/>
<path d="M148.885 399.947C149.343 399.947 149.714 399.575 149.714 399.117C149.714 398.659 149.343 398.288 148.885 398.288C148.427 398.288 148.055 398.659 148.055 399.117C148.055 399.575 148.427 399.947 148.885 399.947Z" fill="black"/>
<path d="M134.473 399.428C131.778 397.717 130.948 394.14 132.659 391.445C134.37 388.749 137.947 387.92 140.642 389.63L134.473 399.428Z" fill="#F29D9D"/>
<path d="M135.925 397.147C134.525 396.266 134.059 394.348 134.992 392.948C135.873 391.548 137.791 391.082 139.191 392.015L135.925 397.147Z" fill="#BD422A"/>
<path d="M146.397 402.798C145.671 403.99 144.064 404.353 142.923 403.575C141.731 402.849 141.368 401.242 142.146 400.102C142.871 398.91 144.478 398.547 145.619 399.324C146.811 400.05 147.174 401.605 146.397 402.798Z" fill="#F29D9D"/>
<path d="M152.151 400.517L152.669 406.375C152.721 407.049 152.047 407.567 151.373 407.308L148.418 406.167L152.151 400.517Z" fill="#F29D9D"/>
<path d="M139.968 390.926L137.48 394.711L138.776 395.644C139.294 394.659 141.005 392.482 141.575 391.756L139.968 390.926Z" fill="#D6B88D"/>
<path d="M157.024 383.565C154.95 379.677 151.425 380.299 144.686 377.033C136.962 373.301 131.726 379.988 130.585 383.409C128.564 389.63 138.05 392.067 140.435 392.43C143.649 392.896 146.604 390.615 149.922 387.401C149.922 387.401 152.669 387.816 155.572 393.103C158.164 392.689 160.186 389.423 157.024 383.565Z" fill="#D6B88D"/>
<path d="M148.004 394.762C148.937 394.866 149.818 395.177 150.647 395.644C151.062 395.851 151.425 396.162 151.788 396.473C151.943 396.629 152.151 396.784 152.306 396.992C152.358 397.095 152.462 397.199 152.514 397.303L152.617 397.458L152.669 397.51C152.669 397.51 152.669 397.51 152.669 397.562C152.669 397.562 152.669 397.562 152.617 397.562C152.617 397.562 152.617 397.562 152.566 397.562C152.514 397.562 152.41 397.562 152.358 397.614C152.462 397.51 152.617 397.562 152.721 397.665C152.825 397.769 152.773 397.925 152.669 398.028C152.617 398.08 152.514 398.08 152.462 398.08C152.358 398.08 152.41 398.028 152.358 398.028C152.358 398.028 152.306 398.028 152.306 397.977L152.203 397.925L151.736 397.614C151.581 397.51 151.373 397.406 151.218 397.251C150.855 397.043 150.492 396.836 150.129 396.629L148.989 396.007C148.626 395.799 148.211 395.592 147.848 395.333C147.744 395.229 147.693 395.074 147.796 394.97C147.848 394.814 147.9 394.762 148.004 394.762Z" fill="#F29D9D"/>
<path d="M146.915 408.759C147.07 408.915 147.278 409.07 147.433 409.226C147.278 409.433 147.122 409.641 146.915 409.9C146.656 409.693 146.397 409.485 146.137 409.226C145.204 408.345 144.738 407.412 145.152 407.152C145.515 406.945 145.982 407.826 146.915 408.759Z" fill="#F29D9D"/>
<path d="M168.843 492.274C169.621 496.577 173.25 514.462 173.302 518.142C173.353 521.304 181.855 519.801 187.661 519.853C195.074 519.905 202.28 520.993 201.917 518.401C201.658 516.691 189.942 517.002 184.24 508.966L181.181 493.363L168.843 492.274Z" fill="#F5CFBF"/>
<path opacity="0.7" d="M168.843 492.274C169.621 496.577 173.25 514.462 173.302 518.142C173.353 521.304 181.855 519.801 187.661 519.853C195.074 519.905 202.28 520.993 201.917 518.401C201.658 516.691 189.942 517.002 184.24 508.966L181.181 493.363L168.843 492.274Z" fill="#292969"/>
<path d="M112.597 475.841C119.854 465.213 137.895 434.991 158.423 437.064C177.19 438.982 184.603 494.296 184.603 494.296L167.081 499.843L154.795 460.962L120.632 508.396L97.1484 499.376L112.597 475.841Z" fill="#292969"/>
<path d="M112.597 475.841C119.854 465.213 137.895 434.991 158.423 437.064C177.19 438.982 184.603 494.296 184.603 494.296L167.081 499.843L154.795 460.962L120.632 508.396L97.1484 499.376L112.597 475.841Z" fill="#292969"/>
<path opacity="0.16" d="M156.039 447.691C167.703 448.054 175.012 495.281 175.272 497.302L174.598 497.406C174.598 497.302 172.731 485.016 169.465 472.937C165.215 457.023 160.549 448.573 156.039 448.417C155.987 448.417 155.935 448.417 155.883 448.417C144.686 448.417 122.291 486.934 122.032 487.297L121.41 486.934C122.343 485.275 144.479 447.328 156.039 447.691Z" fill="black"/>
<path d="M57.6462 475.219C53.0325 491.289 51.9957 516.431 68.0661 519.957C76.8789 521.926 88.3874 520.682 118.092 520.838C147.433 520.993 166.511 522.445 166.355 506.323C166.199 490.252 130.637 494.296 123.068 493.57C115.448 492.844 80.3004 492.533 80.3004 492.533L57.6462 475.219Z" fill="#292969"/>
<path d="M126.853 421.408C126.853 421.408 124.676 425.141 117.677 421.512C110.575 417.831 107.672 409.848 107.672 409.848C107.672 409.848 85.9509 414.462 71.0728 441.833C61.6379 459.252 54.1211 484.239 54.1211 484.239C54.1211 484.239 64.2818 496.577 105.287 492.844C105.287 492.844 117.625 469.412 123.95 458.059C130.326 446.758 135.51 437.323 126.853 421.408Z" fill="#A6E0F4"/>
<path opacity="0.63" d="M117.262 431.103C124.935 439.76 127.63 454.483 127.63 454.483L123.431 459.77L117.262 431.103Z" fill="#84C3D9"/>
<path opacity="0.63" d="M93.0012 438.464C89.5797 448.417 99.1183 481.336 107.361 488.801L115.811 473.249L93.0012 438.464Z" fill="#84C3D9"/>
<path d="M213.218 440.693L212.959 440.589L202.384 474.648H165.733V475.011C165.733 475.944 166.511 476.722 167.444 476.722H202.384C203.369 476.722 204.198 475.996 204.406 475.063L214.411 442.87C214.67 441.989 214.152 441.004 213.218 440.693Z" fill="#292969"/>
<path d="M116.537 435.975C120.217 444.114 129.704 480.454 129.704 480.454C129.704 480.454 165.629 465.784 174.131 463.243C182.633 460.703 185.38 464.643 185.38 464.643L182.996 464.799C182.996 464.799 185.536 466.406 185.069 466.976C184.551 467.546 182.322 465.991 181.129 466.198C181.129 466.198 183.981 467.183 183.877 468.013C183.825 468.842 180.818 467.391 179.885 467.546C179.885 467.546 182.374 468.531 182.166 469.205C181.907 469.879 180.196 469.153 177.864 469.879C175.531 470.553 173.302 472.16 168.636 474.7C163.97 477.24 133.125 502.901 120.269 493.414C107.413 483.928 92.2754 449.817 93.0012 438.516C93.9343 424.052 109.486 420.475 116.537 435.975Z" fill="#F5CFBF"/>
<path d="M120.425 493.622C119.388 492.896 118.403 491.963 117.573 490.874C117.677 490.719 117.781 490.563 117.884 490.459C119.284 488.904 121.721 488.801 123.276 490.2C124.676 491.496 124.883 493.57 123.898 495.125C122.654 494.814 121.513 494.296 120.425 493.622Z" fill="#F29D9D"/>
<path d="M80.7151 493.259L81.078 493.311C82.8405 484.55 92.3273 456.711 95.9042 450.698L95.5932 450.542C91.9644 456.608 82.4777 484.446 80.7151 493.259Z" fill="#90CEE3"/>
<path opacity="0.7" d="M126.542 468.79C126.49 468.531 126.386 468.324 126.334 468.064L123.017 464.436L103.784 468.79L105.443 474.233C106.065 475.322 106.687 476.411 107.309 477.499C117.936 475.529 125.142 469.983 126.542 468.79Z" fill="#E6B191"/>
<path d="M127.423 468.013C124.053 455.83 119.543 439.967 117.159 434.783C109.486 417.935 92.5347 421.771 91.5497 437.479C91.0831 444.84 96.7856 461.014 104.406 475.063C110.886 474.337 123.38 470.086 127.423 468.013Z" fill="#A6E0F4"/>
<path d="M156.765 519.957L159.408 488.023C159.771 483.72 163.4 480.351 167.755 480.351H226.023C230.326 480.351 234.006 483.72 234.369 488.023L237.065 519.957H240.59L237.894 487.712C237.376 481.595 232.192 476.826 226.023 476.826H167.755C161.638 476.826 156.402 481.595 155.883 487.764L153.239 519.957H156.765Z" fill="#FFCB8A"/>
<path d="M102.177 471.071L102.229 471.434C111.456 470.138 126.283 464.436 126.438 464.332L126.334 464.021C126.127 464.073 111.353 469.827 102.177 471.071Z" fill="#90CEE3"/>
<path d="M127.993 423.845C127.993 423.897 126.645 426.541 119.129 425.4C111.871 424.312 106.687 417.209 104.769 410.678L104.406 410.781C105.184 413.477 106.532 416.224 108.294 418.661C105.287 419.801 102.851 422.238 102.644 422.393C101.659 422.445 100.622 422.653 99.6368 422.964C94.6601 424.415 92.6384 429.081 91.8089 432.71C90.7203 437.531 91.2387 442.507 92.0681 445.255L92.431 445.151C90.5129 438.671 91.2905 425.815 99.7405 423.327C103.473 422.238 107.465 422.705 111.093 424.726C114.567 426.696 116.589 429.392 117.107 431.206L117.47 431.103C116.848 428.822 114.411 426.126 111.301 424.415C108.761 422.964 105.961 422.29 103.214 422.393C103.991 421.668 106.065 419.905 108.501 418.972C111.145 422.445 114.722 425.141 119.025 425.763C120.373 425.97 121.565 426.074 122.55 426.074C127.319 426.074 128.253 424.156 128.304 424.052L127.993 423.845Z" fill="#90CEE3"/>
<path d="M563.253 157.127C562.372 156.661 562.32 157.905 564.497 149.403C565.378 149.87 565.43 148.625 563.253 157.127Z" fill="#FF4963"/>
<path d="M565.793 156.92C564.964 156.505 564.912 157.749 566.83 149.559C567.659 149.973 567.763 148.729 565.793 156.92Z" fill="#FF4963"/>
<path d="M569.681 139.813V130.015C569.681 124.727 566.83 121.721 563.305 121.721C559.78 121.721 556.929 124.675 556.929 130.015V139.813C556.929 146.5 560.557 149.973 564.964 149.973H568.282C572.74 149.973 576.317 146.5 576.317 139.813H569.681Z" fill="#2EC76D"/>
<path d="M553.818 129.03L557.862 131.363V126.749L553.818 129.03Z" fill="#F29D9D"/>
<path d="M561.801 127.941C561.801 128.564 561.49 129.082 561.127 129.082C560.765 129.082 560.454 128.564 560.454 127.941C560.454 127.319 560.765 126.801 561.127 126.801C561.49 126.853 561.801 127.371 561.801 127.941Z" fill="black"/>
<path d="M574.865 132.348C574.865 132.348 577.25 138.88 571.962 142.716C568.437 145.256 564.393 145.619 562.994 143.597C561.594 141.627 563.357 137.947 566.934 135.458C570.459 132.97 574.865 132.348 574.865 132.348Z" fill="#9CE179"/>
</g>
<defs>
<linearGradient id="paint0_linear_140_1094" x1="138.413" y1="284.602" x2="607.826" y2="321.927" gradientUnits="userSpaceOnUse">
<stop stop-color="#2C2C55"/>
<stop offset="1" stop-color="#171733" stop-opacity="0"/>
</linearGradient>
<linearGradient id="paint1_linear_140_1094" x1="281.214" y1="184.853" x2="281.214" y2="205.331" gradientUnits="userSpaceOnUse">
<stop stop-color="#E0B69A"/>
<stop offset="1" stop-color="#F5CFBF" stop-opacity="0"/>
</linearGradient>
<linearGradient id="paint2_linear_140_1094" x1="279.322" y1="299.659" x2="279.322" y2="322.122" gradientUnits="userSpaceOnUse">
<stop stop-color="#E0B69A"/>
<stop offset="1" stop-color="#F5CFBF"/>
</linearGradient>
<linearGradient id="paint3_linear_140_1094" x1="486.247" y1="40.3057" x2="484.566" y2="67.233" gradientUnits="userSpaceOnUse">
<stop stop-color="#F0C3A8"/>
<stop offset="1" stop-color="#F5CFBF"/>
</linearGradient>
<linearGradient id="paint4_linear_140_1094" x1="516.846" y1="374.027" x2="530.843" y2="422.756" gradientUnits="userSpaceOnUse">
<stop stop-color="#D09880"/>
<stop offset="1" stop-color="#F5CFBF"/>
</linearGradient>
<linearGradient id="paint5_linear_140_1094" x1="558.098" y1="333.767" x2="565.817" y2="357.229" gradientUnits="userSpaceOnUse">
<stop stop-color="#E0B09C"/>
<stop offset="1" stop-color="#F5CFBF"/>
</linearGradient>
<linearGradient id="paint6_linear_140_1094" x1="474.596" y1="447.121" x2="524.104" y2="442.715" gradientUnits="userSpaceOnUse">
<stop stop-color="#325BB4"/>
<stop offset="1" stop-color="#3D6ACC" stop-opacity="0"/>
</linearGradient>
<linearGradient id="paint7_linear_140_1094" x1="137.259" y1="399.349" x2="118.953" y2="415.931" gradientUnits="userSpaceOnUse">
<stop stop-color="#F0C3A8"/>
<stop offset="1" stop-color="#F5CFBF"/>
</linearGradient>
<clipPath id="clip0_140_1094">
<rect width="743.647" height="524" fill="white"/>
</clipPath>
<clipPath id="clip1_140_1094">
<rect width="142.56" height="296.007" fill="white" transform="translate(213.899 165)"/>
</clipPath>
<clipPath id="clip2_140_1094">
<rect width="100.57" height="65.3186" fill="white" transform="translate(232.562 166.555)"/>
</clipPath>
<clipPath id="clip3_140_1094">
<rect width="127.527" height="45.6193" fill="white" transform="translate(349.72 165)"/>
</clipPath>
</defs>
</svg>
