<svg width="24" height="24" viewBox="0 0 24 24" fill="none" xmlns="http://www.w3.org/2000/svg">
<g clip-path="url(#clip0_1298_106361)">
<path d="M7.877 15.2063C4.033 15.2063 0.75 15.7873 0.75 18.1153C0.75 20.4423 4.012 21.0453 7.877 21.0453C8.4323 21.0453 8.97589 21.0332 9.49957 21.0054" stroke="#170944" stroke-width="1.5" stroke-linecap="round" stroke-linejoin="round"/>
<path fill-rule="evenodd" clip-rule="evenodd" d="M7.87659 11.886C10.4126 11.886 12.4446 9.853 12.4446 7.318C12.4446 4.782 10.4126 2.75 7.87659 2.75C5.34159 2.75 3.30859 4.782 3.30859 7.318C3.30859 9.853 5.34159 11.886 7.87659 11.886Z" stroke="#170944" stroke-width="1.5" stroke-linecap="round" stroke-linejoin="round"/>
<path fill-rule="evenodd" clip-rule="evenodd" d="M17.4172 12.0072L18.7682 14.7249C18.8359 14.862 18.9666 14.9577 19.1182 14.9798L22.1428 15.4167C22.2653 15.4331 22.3756 15.4972 22.4508 15.5952C22.592 15.779 22.5704 16.0392 22.4012 16.1972L20.2091 18.3171C20.0976 18.4221 20.0481 18.5761 20.0772 18.726L20.6022 21.7173C20.639 21.9652 20.4698 22.1974 20.2219 22.2377C20.1192 22.2534 20.0142 22.2371 19.9209 22.191L17.2271 20.7787C17.0917 20.7052 16.9296 20.7052 16.7942 20.7787L14.0806 22.1986C13.8536 22.3141 13.576 22.2283 13.4523 22.0061C13.4051 21.9162 13.3887 21.8142 13.4051 21.7144L13.9301 18.7231C13.9563 18.5737 13.9067 18.4203 13.7982 18.3147L11.5944 16.1955C11.4147 16.017 11.4136 15.7265 11.5926 15.5468C11.5932 15.5462 11.5938 15.5451 11.5944 15.5445C11.6685 15.4774 11.7595 15.4325 11.8581 15.415L14.8832 14.9781C15.0343 14.9542 15.1644 14.8597 15.2332 14.7226L16.5831 12.0072C16.6373 11.8969 16.7336 11.8123 16.8502 11.7738C16.9675 11.7347 17.0958 11.7441 17.2061 11.7995C17.2965 11.8444 17.3706 11.9173 17.4172 12.0072Z" stroke="#170944" stroke-width="1.5" stroke-linecap="round" stroke-linejoin="round"/>
</g>
<defs>
<clipPath id="clip0_1298_106361">
<rect width="24" height="24" fill="white"/>
</clipPath>
</defs>
</svg>
